<svg data-v-43236c3c="" width="120" height="28" viewBox="0 0 120 28" fill="none" xmlns="http://www.w3.org/2000/svg" class="logo"><path data-v-43236c3c="" fill-rule="evenodd" clip-rule="evenodd" d="M20.3994 13.2158L20.3993 13.2157C20.3788 13.1999 20.3582 13.1839 20.3375 13.1674C21.2128 11.9094 21.6505 10.3767 21.6505 8.56915C21.6505 5.88904 20.7314 3.79081 18.8933 2.27449C17.0552 0.758163 14.5256 0 11.3045 0H3.28237V1.12165H11.16C13.8975 1.12165 16.3396 1.73091 17.8889 2.99378C19.3299 4.16798 19.8583 5.18123 20.2801 6.69537C19.8517 5.31426 18.8424 4.42581 18.2155 3.90358C17.1175 2.98065 15.7537 2.33525 12.0381 2.33525H5.84096V3.42897H11.8904C15.0611 3.42897 16.2247 3.81983 17.2915 4.60974C18.6586 5.62135 19.5038 6.83003 19.5038 8.57408C19.5038 10.1457 18.954 10.9865 18.0267 11.8585C17.9184 11.8158 17.8101 11.7748 17.6985 11.7354L17.8035 11.6795C18.8063 11.1261 19.5005 10.0636 19.5005 8.56915C19.5005 6.93678 18.565 5.91531 17.6493 5.34217C16.7909 4.80352 15.9736 4.44223 12.4861 4.44223H8.03851V5.16317H12.3614C15.5092 5.16317 16.7023 5.72317 17.065 5.94487C17.7707 6.37842 18.7062 7.13056 18.7062 8.57244C18.7062 9.49208 18.163 10.5989 17.3604 11.0506C17.0998 11.195 16.8248 11.3116 16.5398 11.3987C15.3451 11.1278 14.123 10.9967 12.8981 11.0079H7.53139V12.1279H12.7487C15.4862 12.1279 17.9644 12.6928 19.4775 14.0016C20.6198 14.9735 21.4509 16.2603 21.8671 17.7016C21.4404 16.3205 20.564 15.4829 19.8041 14.9098C18.6553 14.0411 17.3424 13.3398 13.6267 13.3415H5.21566V14.4352H13.4889C16.6596 14.4352 17.8216 14.826 18.89 15.616C20.255 16.6272 21.0887 17.8354 21.0892 19.5786C21.0887 20.9885 20.4077 22.0438 19.4037 22.5774C18.4026 23.1111 16.9846 23.4166 14.5803 23.4133H0V22.7186H14.5278C16.7401 22.7186 18.2286 22.3622 18.9589 21.9632C19.7631 21.5264 20.3064 20.4605 20.3064 19.5737C20.3064 18.1861 19.3725 17.4553 18.6652 17.0365C18.3041 16.823 17.1093 16.2811 13.9632 16.2811H8.41926V15.5881H14.0863C17.6378 15.5881 18.3927 15.9379 19.2511 16.4568C20.1668 17.0135 21.0892 18.0021 21.0892 19.577C21.0892 19.5775 21.0892 19.5781 21.0892 19.5786C21.0892 19.5791 21.0892 19.5797 21.0892 19.5803C21.0892 21.2619 20.2423 22.4887 18.8703 23.5003C17.4671 24.5333 15.3221 24.5661 14.449 24.5661H9.85365V25.6615H13.2887C16.164 25.6615 18.0842 25.4151 19.7467 24.1835C21.3058 23.024 22.1346 21.5247 22.1346 19.5852C22.1495 20.6245 21.9262 21.6533 21.4818 22.5928C21.0374 23.5322 20.3838 24.3573 19.5711 25.0046C17.9972 26.3052 15.1891 26.8784 12.3794 26.8784H3.33487V28H12.4434C15.8352 28 18.4824 27.2632 20.3851 25.7896C22.2878 24.3159 23.2386 22.2478 23.2375 19.5852C23.2375 16.8996 22.3195 14.7987 20.4836 13.2823C20.456 13.2595 20.4278 13.2377 20.3994 13.2158ZM20.5378 8.57408C20.5614 9.97438 20.1528 11.3479 19.3676 12.5072C19.2712 12.4516 19.1731 12.3976 19.0751 12.3437L19.0751 12.3437L19.075 12.3437L19.075 12.3437L19.075 12.3436L19.075 12.3436L19.0748 12.3436L19.0746 12.3434L19.0745 12.3434L19.0743 12.3433L19.0742 12.3432L19.0741 12.3431L19.0738 12.343C20.0375 11.3311 20.5635 9.97981 20.5378 8.58229V8.57408ZM14.9003 18.0071H7.01611V18.6176H14.9003V18.0071ZM10.2671 20.2289H14.8526V20.7525H10.2671V20.2289ZM5.67036 18.0071H3.33496V18.6176H5.67036V18.0071ZM1.87891 20.1863H8.97209V20.7968H1.87891V20.1863ZM8.5536 24.8469H1.87891V25.5788H8.5536V24.8469ZM0.216797 26.8931H1.88589V27.955H0.216797V26.8931ZM6.3907 4.61305H3.62695V5.11688H6.3907V4.61305ZM1.70361 8.62011H8.03365V9.20602H1.70361V8.62011ZM14.8673 6.83174H4.38672V7.41765H14.8673V6.83174ZM9.62695 8.62011H14.6687V9.20602H9.62695V8.62011ZM48.1144 6.84643C48.4432 7.09898 48.8489 7.23062 49.2633 7.21922C49.6861 7.23122 50.0999 7.09532 50.4334 6.83493C50.5835 6.72875 50.7058 6.5881 50.7903 6.4248C50.8748 6.26149 50.9189 6.08028 50.9189 5.8964C50.9189 5.71251 50.8748 5.53131 50.7903 5.36801C50.7058 5.2047 50.5835 5.06405 50.4334 4.95787C50.0985 4.70092 49.6851 4.56751 49.2633 4.58015C48.8479 4.56755 48.4414 4.70123 48.1144 4.95787C47.966 5.0669 47.8456 5.20968 47.7631 5.37443C47.6806 5.53918 47.6385 5.72118 47.6401 5.90543C47.6385 6.08876 47.6807 6.26983 47.7632 6.43353C47.8457 6.59722 47.9661 6.73879 48.1144 6.84643ZM47.9782 23.1258H50.4876L50.481 10.4396H47.9782V23.1258ZM31.6074 5.36023V23.1259H37.9966C40.0426 23.1248 41.7385 22.654 43.0842 21.7135C44.43 20.7731 45.1029 19.5425 45.1029 18.0218C45.1202 17.4569 45.0094 16.8955 44.7789 16.3795C44.5484 15.8636 44.2041 15.4066 43.7719 15.0428C42.8845 14.2786 41.7018 13.8265 40.2236 13.6863V13.6354C41.4108 13.3212 42.3408 12.793 43.0136 12.0507C43.675 11.3371 44.0364 10.3962 44.023 9.4231C44.0241 8.21661 43.4683 7.23784 42.3555 6.48679C41.2428 5.73575 39.7389 5.36023 37.8439 5.36023H31.6074ZM34.1775 12.9802V7.24386L37.1251 7.24715C39.9293 7.24715 41.3314 8.10987 41.3314 9.8353C41.3483 10.2943 41.2457 10.7498 41.0337 11.1572C40.8216 11.5646 40.5074 11.9098 40.1219 12.1591C39.3155 12.7065 38.2094 12.9802 36.8034 12.9802H34.1775ZM34.1775 21.2439V14.8507H37.13C40.6586 14.8507 42.4228 15.8995 42.4228 17.9972C42.4358 18.4675 42.3279 18.9332 42.1095 19.3499C41.8911 19.7665 41.5695 20.1201 41.1755 20.3768C40.3429 20.9548 39.1727 21.2439 37.665 21.2439H34.1775ZM61.5786 23.0027C60.9878 23.2666 60.2077 23.3985 59.2383 23.3985C56.4942 23.3985 55.1228 22.1597 55.1239 19.6821V12.1739H52.4307V10.4397H55.1239V7.34243L57.6316 6.68553V10.4397H61.5704V12.1739H57.6316V19.3225C57.6316 20.1732 57.8099 20.7802 58.1666 21.1437C58.5233 21.5072 59.1152 21.6889 59.9424 21.6889C60.518 21.7055 61.0867 21.5598 61.5835 21.2685L61.5786 23.0027ZM82.0066 23.1258H84.3568L84.3551 6.7758H81.401L75.0939 18.1285C74.8488 18.5686 74.5255 19.237 74.124 20.1337H74.0387C73.7844 19.4552 73.4737 18.7993 73.1097 18.1729L66.9176 6.7758H63.7993V23.1258H66.0789V12.1853C66.0956 11.1161 66.0578 10.0467 65.9657 8.98131H66.0215C66.1638 9.55998 66.3668 10.122 66.6271 10.658L73.5086 23.1258H74.6574L81.5504 10.5661C81.8032 10.0587 82.006 9.52799 82.1559 8.98131H82.2035C82.084 10.0376 82.0183 11.0993 82.0066 12.1623V23.1258ZM99.6163 23.1258H97.107V21.1436H97.0462C95.9521 22.6643 94.346 23.4241 92.2277 23.423C90.6675 23.423 89.4459 23.0886 88.563 22.4196C88.1418 22.1162 87.8014 21.7142 87.5713 21.2487C87.3413 20.7832 87.2288 20.2684 87.2435 19.7494C87.2435 17.3802 88.9673 16.0013 92.4148 15.6126L97.1103 15.0789C97.1103 12.9232 96.0347 11.8453 93.8837 11.8453C92.0599 11.8259 90.2748 12.3714 88.773 13.4071V11.3313C90.3125 10.5376 92.0871 10.1412 94.097 10.1423C97.7788 10.1423 99.6196 11.72 99.6196 14.8752L99.6163 23.1258ZM97.107 16.708L93.3322 17.13C92.1703 17.2614 91.295 17.4946 90.7064 17.8296C90.1177 18.1646 89.8218 18.7575 89.8185 19.6081C89.8167 19.9097 89.891 20.2069 90.0344 20.4721C90.1778 20.7373 90.3858 20.9621 90.6391 21.1256C91.1861 21.5175 91.9126 21.7135 92.8186 21.7135C94.0626 21.7135 95.09 21.3604 95.9007 20.6542C96.2913 20.327 96.6034 19.9161 96.8139 19.4519C97.0244 18.9877 97.1279 18.4821 97.1168 17.9725L97.107 16.708ZM109.362 12.0868C110.189 12.0868 110.821 12.2231 111.259 12.4957L111.259 12.1739H113.54V19.6821C113.539 22.1597 114.911 23.3985 117.655 23.3985C118.624 23.3985 119.404 23.2666 119.995 23.0027L120 21.2685C119.503 21.5596 118.934 21.7052 118.359 21.6889C117.532 21.6889 116.94 21.5072 116.583 21.1437C116.226 20.7802 116.048 20.1732 116.048 19.3225V12.1739H119.987V10.4397H116.048V6.68553L113.54 7.34243V10.4397H111.262L111.262 10.3903C110.775 10.2561 110.269 10.1973 109.764 10.2163C108.886 10.207 108.026 10.469 107.302 10.9668C106.555 11.4784 105.982 12.2068 105.661 13.054H105.599V10.4396H103.091V23.1258H105.599V16.6587C105.599 15.2464 105.958 14.1313 106.677 13.3135C107.005 12.922 107.416 12.6088 107.881 12.3965C108.345 12.1843 108.851 12.0785 109.362 12.0868Z" fill="#ffffff"></path></svg>