<svg width="727" height="88" viewBox="0 0 727 88" fill="none" xmlns="http://www.w3.org/2000/svg">
<path d="M140.166 61.7717L109.356 8.34175C102.606 -2.79825 86.1362 -2.91825 79.6262 8.81175L47.2662 64.4118C41.2662 74.6018 48.6862 87.4118 60.7762 87.4118H125.576C137.796 87.4018 146.916 74.2517 140.166 61.7717Z" fill="#00B897"/>
<path d="M95.7261 65.9617L93.8361 62.6417C92.0561 59.5617 88.1461 52.9317 88.1461 52.9317L62.0861 7.67171C60.4337 5.17465 58.1535 3.1562 55.4744 1.81893C52.7953 0.481655 49.8116 -0.127379 46.8227 0.0529662C43.8338 0.233311 40.945 1.19669 38.4461 2.84639C35.9473 4.4961 33.9263 6.77408 32.5861 9.45171L2.26611 61.9317C0.775713 64.5212 -0.00589478 67.4578 3.34734e-05 70.4456C0.00596173 73.4333 0.799216 76.3668 2.29988 78.9504C3.80054 81.5339 5.95561 83.6764 8.54795 85.1618C11.1403 86.6473 14.0784 87.4233 17.0661 87.4117H125.346C108.646 87.5217 103.266 78.8817 95.7261 65.9617Z" fill="#76FCB2"/>
<path d="M95.7462 65.9518L93.8462 62.6317C92.0662 59.5517 88.1662 52.9218 88.1662 52.9218L71.3362 23.3018L47.1662 64.5318C41.1662 74.7218 48.5862 87.5318 60.6762 87.5318H125.366C108.536 87.3918 103.326 78.8618 95.7462 65.9518Z" fill="url(#paint0_linear_255_111)"/>
<path d="M721.436 83.2718C717.781 83.419 714.161 82.5131 711.006 80.6618C709.68 79.8303 708.598 78.6619 707.871 77.2758C707.143 75.8897 706.797 74.3356 706.866 72.7718V21.0718H713.736C714.961 21.0744 716.134 21.562 717 22.4279C717.866 23.2937 718.354 24.4673 718.356 25.6918V71.1818C718.424 72.6917 719.06 74.1203 720.136 75.1818C720.668 75.7369 721.31 76.1742 722.022 76.4653C722.733 76.7565 723.498 76.8949 724.266 76.8718H725.566C725.823 76.8715 726.07 76.9699 726.256 77.1468C726.442 77.3236 726.553 77.5653 726.566 77.8218V83.3918L721.436 83.2718Z" fill="#00B897"/>
<path d="M573.316 83.2617C566.206 83.2617 560.396 81.3617 556.016 77.5717C553.926 75.8721 552.296 73.6749 551.276 71.1817C550.276 68.8117 549.856 65.3717 549.856 60.7517C549.856 56.1317 550.326 52.6917 551.276 50.3217C552.249 47.8988 553.843 45.7745 555.896 44.1617C560.276 40.3717 566.086 38.4817 573.196 38.4817C580.306 38.4817 586.106 40.3717 590.496 44.1617C592.524 45.7994 594.112 47.9165 595.116 50.3217C596.195 53.6957 596.675 57.2322 596.536 60.7717C596.536 65.3917 596.056 68.8317 595.116 71.2017C594.096 73.6949 592.466 75.8921 590.376 77.5917C586.266 81.3617 580.426 83.2617 573.316 83.2617ZM573.316 44.9917C565.496 44.9917 561.586 50.3217 561.586 60.8717C561.586 71.4217 565.496 76.8717 573.316 76.8717C581.136 76.8717 585.046 71.5417 585.046 61.0017C585.046 50.4617 581.016 44.9917 573.316 44.9917Z" fill="#00B897"/>
<path d="M622.356 83.2718C616.432 83.3364 610.621 81.6453 605.656 78.4118C604.845 77.7364 603.971 77.1403 603.046 76.6318C602.903 76.5447 602.784 76.4231 602.7 76.2781C602.616 76.1331 602.57 75.9693 602.566 75.8018V21.0718H609.566C610.786 21.0923 611.95 21.5853 612.814 22.4471C613.678 23.3088 614.173 24.472 614.196 25.6918V41.6918L616.326 40.5118C618.816 39.2118 622.136 38.6118 626.396 38.6118C633.856 38.6118 639.546 40.8718 643.336 45.2518C646.656 49.1618 648.336 54.3718 648.336 60.7718C648.336 67.1718 646.436 72.3818 642.646 76.1718C638.266 80.9018 631.356 83.2718 622.356 83.2718ZM623.536 45.0018C620.936 45.0018 617.976 45.9518 614.656 48.0018L614.186 48.2418V73.9518L614.656 74.3018C617.319 75.96 620.4 76.8238 623.536 76.7918C625.503 76.865 627.454 76.4091 629.185 75.4716C630.915 74.5341 632.363 73.1494 633.376 71.4618C635.404 68.2815 636.448 64.573 636.376 60.8018C636.336 50.3318 631.956 45.0018 623.536 45.0018Z" fill="#00B897"/>
<path d="M675.686 83.1416C662.686 83.1416 654.476 74.6116 654.476 60.7516C654.476 46.8916 662.476 38.4816 675.476 38.4816C679.997 38.3538 684.438 39.6825 688.146 42.2716L688.866 42.7416V39.3116H697.986C698.111 39.3089 698.235 39.3313 698.35 39.3774C698.466 39.4236 698.572 39.4926 698.66 39.5803C698.749 39.668 698.819 39.7726 698.866 39.8879C698.914 40.0032 698.937 40.1269 698.936 40.2516V82.3116H688.716V78.5216L688.006 79.1116C685.166 81.7716 680.656 83.1416 675.686 83.1416ZM678.046 46.0616C669.876 46.0616 665.046 52.3416 665.046 60.7516C665.046 69.1616 669.906 75.6816 678.046 75.6816C680.656 75.6816 685.166 75.4416 688.716 71.8916L688.836 71.7716V50.2116L688.716 50.0916C686.266 47.2416 682.556 46.0616 678.046 46.0616Z" fill="#00B897"/>
<path d="M254.756 82.6917V20.9617H306.056V24.8717C306.056 26.3489 305.469 27.7657 304.425 28.8102C303.38 29.8548 301.963 30.4417 300.486 30.4417H267.546V47.0217H300.486V56.5017H267.546V73.0917H300.486C301.963 73.0917 303.38 73.6785 304.425 74.7231C305.469 75.7677 306.056 77.1844 306.056 78.6617V82.5717L254.756 82.6917Z" fill="white"/>
<path d="M379.716 20.9618H367.626C366.532 20.9504 365.45 21.1907 364.463 21.664C363.477 22.1374 362.612 22.8312 361.936 23.6918L347.366 42.0518L332.796 23.7718C332.119 22.9136 331.254 22.2221 330.267 21.7506C329.281 21.279 328.199 21.04 327.106 21.0518H315.026L339.546 51.8518L315.026 82.6618H327.106C328.2 82.674 329.283 82.4341 330.27 81.9607C331.256 81.4872 332.121 80.793 332.796 79.9318L347.366 61.6818L362.056 80.0518C362.75 80.8917 363.618 81.5701 364.601 82.0399C365.584 82.5097 366.657 82.7594 367.746 82.7718H379.826L355.266 52.0018L379.716 20.9618Z" fill="white"/>
<path d="M214.586 76.1817L231.406 46.7717V82.5517H244.206V20.8517H236.266C235.038 20.8436 233.831 21.1697 232.774 21.795C231.717 22.4204 230.85 23.3214 230.266 24.4017L210.126 61.1317L189.986 24.4017C189.4 23.3236 188.532 22.4243 187.476 21.7993C186.419 21.1743 185.214 20.8469 183.986 20.8517H175.966V82.5817H188.756V46.7717L205.586 76.1517L214.586 76.1817Z" fill="white"/>
<path d="M413.136 83.3918C408.934 83.4794 404.757 82.7304 400.848 81.1884C396.938 79.6463 393.375 77.3421 390.364 74.4097C387.354 71.4774 384.956 67.9755 383.312 64.108C381.668 60.2404 380.809 56.0844 380.786 51.8818C380.786 42.1618 383.786 34.1118 389.316 28.5418C394.846 22.9718 402.946 20.1318 412.536 20.1318C423.796 20.1318 432.676 24.0419 439.076 31.6219L435.076 35.0518C433.843 36.0941 432.292 36.6857 430.678 36.7293C429.064 36.773 427.484 36.266 426.196 35.2918C422.378 32.5372 417.752 31.1301 413.046 31.2918C400.486 31.2918 393.046 38.8718 393.046 51.6718C393.046 64.4718 400.746 72.5219 413.046 72.5219C417.747 72.6494 422.362 71.2455 426.196 68.5219C427.485 67.5512 429.065 67.0464 430.678 67.09C432.291 67.1336 433.842 67.7229 435.076 68.7618L439.076 72.2018C432.676 79.6018 424.146 83.3918 413.136 83.3918Z" fill="white"/>
<path d="M491.916 83.3716C472.006 83.3716 459.686 71.2916 459.686 51.8616C459.686 32.4316 472.006 20.3516 491.686 20.3516C501.166 20.3516 509.106 23.0716 515.266 28.6416L512.266 31.9616C511.254 33.0673 509.911 33.8151 508.438 34.0928C506.965 34.3705 505.441 34.163 504.096 33.5016C500.237 31.5711 495.971 30.5938 491.656 30.6516C478.856 30.6516 470.926 38.8316 470.926 51.9816C470.926 65.1316 479.216 73.4216 492.486 73.4216C498.886 73.4216 503.856 72.2416 507.486 69.6316L507.726 69.5116V56.8416H493.626V52.6916C493.626 51.2143 494.213 49.7976 495.258 48.753C496.302 47.7084 497.719 47.1216 499.196 47.1216H516.616C516.873 47.1213 517.12 47.2197 517.306 47.3966C517.492 47.5734 517.603 47.8151 517.616 48.0716V75.4416C511.576 80.6516 502.926 83.3716 491.916 83.3716Z" fill="#00B897"/>
<path d="M540.506 83.2718C536.854 83.4188 533.237 82.5128 530.086 80.6618C528.75 79.8281 527.66 78.6524 526.931 77.2565C526.201 75.8605 525.858 74.295 525.936 72.7218V21.0718H532.806C534.031 21.0718 535.207 21.5585 536.073 22.425C536.939 23.2914 537.426 24.4665 537.426 25.6918V71.1818C537.494 72.6917 538.13 74.1203 539.206 75.1818C539.742 75.7323 540.387 76.1644 541.1 76.4503C541.813 76.7362 542.578 76.8696 543.346 76.8418H544.656C544.913 76.8415 545.16 76.9399 545.346 77.1168C545.532 77.2936 545.643 77.5353 545.656 77.7918V83.3618L540.506 83.2718Z" fill="#00B897"/>
<defs>
<linearGradient id="paint0_linear_255_111" x1="38.5662" y1="45.8118" x2="113.436" y2="73.4718" gradientUnits="userSpaceOnUse">
<stop stop-color="#53E57A" stop-opacity="0"/>
<stop offset="1" stop-color="#00A977"/>
</linearGradient>
</defs>
</svg>
